<mxfile host="app.diagrams.net" modified="2024-03-03T17:56:05.020Z" agent="Mozilla/5.0 (Windows NT 10.0; Win64; x64) AppleWebKit/537.36 (KHTML, like Gecko) Chrome/122.0.0.0 Safari/537.36" etag="RyKD_nDXWyPSuZDKeHPL" version="24.0.1" type="google">
  <diagram name="Página-1" id="EpQWCVIP9mDsC_vQAap2">
    <mxGraphModel dx="4097" dy="2206" grid="1" gridSize="10" guides="1" tooltips="1" connect="1" arrows="1" fold="1" page="1" pageScale="1" pageWidth="1654" pageHeight="2336" math="0" shadow="0">
      <root>
        <mxCell id="0" />
        <mxCell id="1" parent="0" />
        <mxCell id="9kY844LqeX3uHkMjqW-R-3" value="" style="edgeStyle=orthogonalEdgeStyle;rounded=0;orthogonalLoop=1;jettySize=auto;html=1;" edge="1" parent="1" source="9kY844LqeX3uHkMjqW-R-1" target="9kY844LqeX3uHkMjqW-R-2">
          <mxGeometry relative="1" as="geometry" />
        </mxCell>
        <mxCell id="9kY844LqeX3uHkMjqW-R-1" value="Início" style="ellipse;whiteSpace=wrap;html=1;" vertex="1" parent="1">
          <mxGeometry x="385" y="170" width="170" height="70" as="geometry" />
        </mxCell>
        <mxCell id="9kY844LqeX3uHkMjqW-R-5" value="" style="edgeStyle=orthogonalEdgeStyle;rounded=0;orthogonalLoop=1;jettySize=auto;html=1;" edge="1" parent="1" source="9kY844LqeX3uHkMjqW-R-2" target="9kY844LqeX3uHkMjqW-R-4">
          <mxGeometry relative="1" as="geometry" />
        </mxCell>
        <mxCell id="9kY844LqeX3uHkMjqW-R-2" value="Pegue duas fatias de pão" style="whiteSpace=wrap;html=1;" vertex="1" parent="1">
          <mxGeometry x="410" y="330" width="120" height="60" as="geometry" />
        </mxCell>
        <mxCell id="9kY844LqeX3uHkMjqW-R-7" value="" style="edgeStyle=orthogonalEdgeStyle;rounded=0;orthogonalLoop=1;jettySize=auto;html=1;" edge="1" parent="1" source="9kY844LqeX3uHkMjqW-R-4" target="9kY844LqeX3uHkMjqW-R-6">
          <mxGeometry relative="1" as="geometry" />
        </mxCell>
        <mxCell id="9kY844LqeX3uHkMjqW-R-4" value="Pegue um vidro de geléia" style="whiteSpace=wrap;html=1;" vertex="1" parent="1">
          <mxGeometry x="410" y="470" width="120" height="60" as="geometry" />
        </mxCell>
        <mxCell id="9kY844LqeX3uHkMjqW-R-9" value="" style="edgeStyle=orthogonalEdgeStyle;rounded=0;orthogonalLoop=1;jettySize=auto;html=1;" edge="1" parent="1" source="9kY844LqeX3uHkMjqW-R-6" target="9kY844LqeX3uHkMjqW-R-8">
          <mxGeometry relative="1" as="geometry" />
        </mxCell>
        <mxCell id="9kY844LqeX3uHkMjqW-R-6" value="Pegue um vidro de creme de amendoim" style="whiteSpace=wrap;html=1;" vertex="1" parent="1">
          <mxGeometry x="410" y="610" width="120" height="60" as="geometry" />
        </mxCell>
        <mxCell id="9kY844LqeX3uHkMjqW-R-21" value="" style="edgeStyle=orthogonalEdgeStyle;rounded=0;orthogonalLoop=1;jettySize=auto;html=1;" edge="1" parent="1" source="9kY844LqeX3uHkMjqW-R-8" target="9kY844LqeX3uHkMjqW-R-20">
          <mxGeometry relative="1" as="geometry" />
        </mxCell>
        <mxCell id="9kY844LqeX3uHkMjqW-R-8" value="Pegue uma faca" style="whiteSpace=wrap;html=1;" vertex="1" parent="1">
          <mxGeometry x="410" y="750" width="120" height="60" as="geometry" />
        </mxCell>
        <mxCell id="9kY844LqeX3uHkMjqW-R-10" value="Algoritmo para fazer um sanduiche" style="text;html=1;align=center;verticalAlign=middle;resizable=0;points=[];autosize=1;strokeColor=none;fillColor=none;fontSize=18;" vertex="1" parent="1">
          <mxGeometry x="320" y="110" width="300" height="40" as="geometry" />
        </mxCell>
        <mxCell id="9kY844LqeX3uHkMjqW-R-11" value="" style="edgeStyle=orthogonalEdgeStyle;rounded=0;orthogonalLoop=1;jettySize=auto;html=1;" edge="1" parent="1" source="9kY844LqeX3uHkMjqW-R-12" target="9kY844LqeX3uHkMjqW-R-14">
          <mxGeometry relative="1" as="geometry" />
        </mxCell>
        <mxCell id="9kY844LqeX3uHkMjqW-R-12" value="Início" style="ellipse;whiteSpace=wrap;html=1;" vertex="1" parent="1">
          <mxGeometry x="1295" y="170" width="170" height="70" as="geometry" />
        </mxCell>
        <mxCell id="9kY844LqeX3uHkMjqW-R-13" value="" style="edgeStyle=orthogonalEdgeStyle;rounded=0;orthogonalLoop=1;jettySize=auto;html=1;" edge="1" parent="1" source="9kY844LqeX3uHkMjqW-R-14" target="9kY844LqeX3uHkMjqW-R-15">
          <mxGeometry relative="1" as="geometry" />
        </mxCell>
        <mxCell id="9kY844LqeX3uHkMjqW-R-14" value="Segurar o vidro firmemente" style="whiteSpace=wrap;html=1;" vertex="1" parent="1">
          <mxGeometry x="1320" y="330" width="120" height="60" as="geometry" />
        </mxCell>
        <mxCell id="9kY844LqeX3uHkMjqW-R-18" value="" style="edgeStyle=orthogonalEdgeStyle;rounded=0;orthogonalLoop=1;jettySize=auto;html=1;" edge="1" parent="1" source="9kY844LqeX3uHkMjqW-R-15" target="9kY844LqeX3uHkMjqW-R-17">
          <mxGeometry relative="1" as="geometry" />
        </mxCell>
        <mxCell id="9kY844LqeX3uHkMjqW-R-15" value="Agarrar a tampa" style="whiteSpace=wrap;html=1;" vertex="1" parent="1">
          <mxGeometry x="1320" y="470" width="120" height="60" as="geometry" />
        </mxCell>
        <mxCell id="9kY844LqeX3uHkMjqW-R-16" value="Algoritmo para abrir um vidro" style="text;html=1;align=center;verticalAlign=middle;resizable=0;points=[];autosize=1;strokeColor=none;fillColor=none;fontSize=18;" vertex="1" parent="1">
          <mxGeometry x="1250" y="110" width="260" height="40" as="geometry" />
        </mxCell>
        <mxCell id="9kY844LqeX3uHkMjqW-R-17" value="Girar a tampa para a esquerda" style="whiteSpace=wrap;html=1;" vertex="1" parent="1">
          <mxGeometry x="1320" y="610" width="120" height="60" as="geometry" />
        </mxCell>
        <mxCell id="9kY844LqeX3uHkMjqW-R-23" value="" style="edgeStyle=orthogonalEdgeStyle;rounded=0;orthogonalLoop=1;jettySize=auto;html=1;" edge="1" parent="1" source="9kY844LqeX3uHkMjqW-R-20" target="9kY844LqeX3uHkMjqW-R-22">
          <mxGeometry relative="1" as="geometry" />
        </mxCell>
        <mxCell id="9kY844LqeX3uHkMjqW-R-20" value="Executar o algoritmo (Abrir o vidro) para o vidro de geléia" style="whiteSpace=wrap;html=1;" vertex="1" parent="1">
          <mxGeometry x="410" y="890" width="120" height="60" as="geometry" />
        </mxCell>
        <mxCell id="9kY844LqeX3uHkMjqW-R-25" value="" style="edgeStyle=orthogonalEdgeStyle;rounded=0;orthogonalLoop=1;jettySize=auto;html=1;" edge="1" parent="1" source="9kY844LqeX3uHkMjqW-R-22" target="9kY844LqeX3uHkMjqW-R-24">
          <mxGeometry relative="1" as="geometry" />
        </mxCell>
        <mxCell id="9kY844LqeX3uHkMjqW-R-22" value="Executar o algoritmo (Abrir o vidro) para o vidro de amendoim" style="whiteSpace=wrap;html=1;" vertex="1" parent="1">
          <mxGeometry x="410" y="1030" width="120" height="60" as="geometry" />
        </mxCell>
        <mxCell id="9kY844LqeX3uHkMjqW-R-27" value="" style="edgeStyle=orthogonalEdgeStyle;rounded=0;orthogonalLoop=1;jettySize=auto;html=1;" edge="1" parent="1" source="9kY844LqeX3uHkMjqW-R-24" target="9kY844LqeX3uHkMjqW-R-26">
          <mxGeometry relative="1" as="geometry" />
        </mxCell>
        <mxCell id="9kY844LqeX3uHkMjqW-R-24" value="Pegar o recheio, passando a faca por dentro do vidro de geléia" style="whiteSpace=wrap;html=1;" vertex="1" parent="1">
          <mxGeometry x="410" y="1170" width="120" height="60" as="geometry" />
        </mxCell>
        <mxCell id="9kY844LqeX3uHkMjqW-R-29" value="" style="edgeStyle=orthogonalEdgeStyle;rounded=0;orthogonalLoop=1;jettySize=auto;html=1;" edge="1" parent="1" source="9kY844LqeX3uHkMjqW-R-26" target="9kY844LqeX3uHkMjqW-R-28">
          <mxGeometry relative="1" as="geometry" />
        </mxCell>
        <mxCell id="9kY844LqeX3uHkMjqW-R-26" value="Passar a faca na 1a fatia de pão, limpando-a por completo" style="whiteSpace=wrap;html=1;" vertex="1" parent="1">
          <mxGeometry x="410" y="1310" width="120" height="60" as="geometry" />
        </mxCell>
        <mxCell id="9kY844LqeX3uHkMjqW-R-31" value="" style="edgeStyle=orthogonalEdgeStyle;rounded=0;orthogonalLoop=1;jettySize=auto;html=1;" edge="1" parent="1" source="9kY844LqeX3uHkMjqW-R-28" target="9kY844LqeX3uHkMjqW-R-30">
          <mxGeometry relative="1" as="geometry" />
        </mxCell>
        <mxCell id="9kY844LqeX3uHkMjqW-R-28" value="Pegar o recheio, passando a faca por dentro do vidro de creme de amendoim" style="whiteSpace=wrap;html=1;" vertex="1" parent="1">
          <mxGeometry x="410" y="1450" width="120" height="60" as="geometry" />
        </mxCell>
        <mxCell id="9kY844LqeX3uHkMjqW-R-33" value="" style="edgeStyle=orthogonalEdgeStyle;rounded=0;orthogonalLoop=1;jettySize=auto;html=1;" edge="1" parent="1" source="9kY844LqeX3uHkMjqW-R-30" target="9kY844LqeX3uHkMjqW-R-32">
          <mxGeometry relative="1" as="geometry" />
        </mxCell>
        <mxCell id="9kY844LqeX3uHkMjqW-R-30" value="Passar a faca na 2a fatia de pão, limpando-a por completo" style="whiteSpace=wrap;html=1;" vertex="1" parent="1">
          <mxGeometry x="410" y="1590" width="120" height="60" as="geometry" />
        </mxCell>
        <mxCell id="9kY844LqeX3uHkMjqW-R-35" value="" style="edgeStyle=orthogonalEdgeStyle;rounded=0;orthogonalLoop=1;jettySize=auto;html=1;" edge="1" parent="1" source="9kY844LqeX3uHkMjqW-R-32" target="9kY844LqeX3uHkMjqW-R-34">
          <mxGeometry relative="1" as="geometry" />
        </mxCell>
        <mxCell id="9kY844LqeX3uHkMjqW-R-32" value="Soltar a faca sobre a mesa" style="whiteSpace=wrap;html=1;" vertex="1" parent="1">
          <mxGeometry x="410" y="1730" width="120" height="60" as="geometry" />
        </mxCell>
        <mxCell id="9kY844LqeX3uHkMjqW-R-37" value="" style="edgeStyle=orthogonalEdgeStyle;rounded=0;orthogonalLoop=1;jettySize=auto;html=1;" edge="1" parent="1" source="9kY844LqeX3uHkMjqW-R-34" target="9kY844LqeX3uHkMjqW-R-36">
          <mxGeometry relative="1" as="geometry" />
        </mxCell>
        <mxCell id="9kY844LqeX3uHkMjqW-R-34" value="&lt;font style=&quot;font-size: 12px;&quot;&gt;Fechar o pote de geleia, com a tampa de geléia, girando a tampa no sentido horário&lt;/font&gt;" style="whiteSpace=wrap;html=1;" vertex="1" parent="1">
          <mxGeometry x="410" y="1870" width="120" height="90" as="geometry" />
        </mxCell>
        <mxCell id="9kY844LqeX3uHkMjqW-R-39" value="" style="edgeStyle=orthogonalEdgeStyle;rounded=0;orthogonalLoop=1;jettySize=auto;html=1;" edge="1" parent="1" source="9kY844LqeX3uHkMjqW-R-36" target="9kY844LqeX3uHkMjqW-R-38">
          <mxGeometry relative="1" as="geometry" />
        </mxCell>
        <mxCell id="9kY844LqeX3uHkMjqW-R-36" value="&lt;font style=&quot;font-size: 12px;&quot;&gt;Fechar o pote de creme de amendoim, com a tampa de creme de amendoim, girando a tampa no sentido horário&lt;/font&gt;" style="whiteSpace=wrap;html=1;" vertex="1" parent="1">
          <mxGeometry x="410" y="2010" width="120" height="100" as="geometry" />
        </mxCell>
        <mxCell id="9kY844LqeX3uHkMjqW-R-41" value="" style="edgeStyle=orthogonalEdgeStyle;rounded=0;orthogonalLoop=1;jettySize=auto;html=1;" edge="1" parent="1" source="9kY844LqeX3uHkMjqW-R-38" target="9kY844LqeX3uHkMjqW-R-40">
          <mxGeometry relative="1" as="geometry" />
        </mxCell>
        <mxCell id="9kY844LqeX3uHkMjqW-R-38" value="Juntar as duas fatias de pão, com a parte do recheio para dentro, ou seja um recheio de frente para o outro recheio" style="whiteSpace=wrap;html=1;" vertex="1" parent="1">
          <mxGeometry x="405" y="2180" width="130" height="100" as="geometry" />
        </mxCell>
        <mxCell id="9kY844LqeX3uHkMjqW-R-43" value="" style="edgeStyle=orthogonalEdgeStyle;rounded=0;orthogonalLoop=1;jettySize=auto;html=1;" edge="1" parent="1" source="9kY844LqeX3uHkMjqW-R-40" target="9kY844LqeX3uHkMjqW-R-42">
          <mxGeometry relative="1" as="geometry" />
        </mxCell>
        <mxCell id="9kY844LqeX3uHkMjqW-R-40" value="Dar uma boa mordida no pão" style="whiteSpace=wrap;html=1;" vertex="1" parent="1">
          <mxGeometry x="410" y="2380" width="120" height="60" as="geometry" />
        </mxCell>
        <mxCell id="9kY844LqeX3uHkMjqW-R-42" value="FIM" style="ellipse;whiteSpace=wrap;html=1;" vertex="1" parent="1">
          <mxGeometry x="390" y="2510" width="160" height="80" as="geometry" />
        </mxCell>
      </root>
    </mxGraphModel>
  </diagram>
</mxfile>
